<?xml version="1.0" encoding="UTF-8"?>
<!-- Generator: Adobe Illustrator 27.8.1, SVG Export Plug-In . SVG Version: 6.00 Build 0)  -->
<svg xmlns="http://www.w3.org/2000/svg" xmlns:xlink="http://www.w3.org/1999/xlink" version="1.1" id="Layer_1" x="0px" y="0px" viewBox="0 0 56.6929 56.6929" style="enable-background:new 0 0 56.6929 56.6929;" xml:space="preserve">
<style type="text/css">
	.st0{fill:#C85000;}
	.st1{fill:#FFFFFF;}
</style>
<path class="st0" d="M52.4409,56.6929H4.252c-2.3483,0-4.252-1.9037-4.252-4.252V4.252C0,1.9037,1.9037,0,4.252,0h48.189  c2.3483,0,4.252,1.9037,4.252,4.252v48.189C56.6929,54.7892,54.7892,56.6929,52.4409,56.6929z"></path>
<g>
	<g>
		<path class="st1" d="M8.1608,21.2962h8.5413v27.4546H8.1608V21.2962z M12.4338,7.6484c2.7295,0,4.9456,2.2169,4.9456,4.948    c0,2.7319-2.216,4.9487-4.9456,4.9487c-2.7405,0-4.9503-2.2168-4.9503-4.9487C7.4835,9.8653,9.6933,7.6484,12.4338,7.6484"></path>
		<path class="st1" d="M22.055,21.2962h8.1793v3.7533h0.117c1.1377-2.1584,3.9219-4.4345,8.0732-4.4345    c8.6396,0,10.2362,5.6847,10.2362,13.0789v15.057h-8.532V35.3996c0-3.1837-0.0547-7.2796-4.4337-7.2796    c-4.44,0-5.1174,3.4701-5.1174,7.0517v13.5791H22.055V21.2962z"></path>
	</g>
</g>
</svg>
